<svg width="52" height="58" viewBox="0 0 52 58" fill="none" xmlns="http://www.w3.org/2000/svg">
<g clip-path="url(#clip0_20_53)">
<g clip-path="url(#clip1_20_53)">
<g clip-path="url(#clip2_20_53)">
<path d="M26 6.79568C37.7678 6.79568 47.4407 15.8363 48.3649 27.259H52C51.8152 24.388 51.1374 21.6392 50.0284 19.0126C48.7346 15.9584 46.8245 13.1484 44.4218 10.8273C42.0189 8.44497 39.2465 6.61249 36.1658 5.2685C32.9004 3.92468 29.5118 3.19162 26 3.19162C22.4882 3.19162 19.0996 3.86361 15.8342 5.20744C12.7536 6.49021 9.91949 8.38391 7.57819 10.7663C5.1753 13.1486 3.32702 15.8973 1.97161 18.9515C0.86255 21.5781 0.184925 24.388 0 27.198H3.63512C4.55926 15.8363 14.2322 6.79568 26 6.79568ZM26 51.2654C14.2322 51.2654 4.55926 42.2248 3.63512 30.802H0C0.184762 33.673 0.86255 36.4219 1.97161 39.0485C3.26544 42.1027 5.17546 44.9126 7.57819 47.2338C9.98107 49.6161 12.7535 51.4486 15.8342 52.7926C19.038 54.1364 22.4266 54.8084 26 54.8084C29.5735 54.8084 32.9004 54.1364 36.1658 52.7926C39.2463 51.5098 42.0805 49.6161 44.4218 47.2338C46.8247 44.8514 48.673 42.1027 50.0284 39.0485C51.1374 36.4219 51.8151 33.612 52 30.802H48.3649C47.4407 42.2248 37.7678 51.2654 26 51.2654Z" fill="#374151"/>
<g clip-path="url(#clip3_20_53)">
<g clip-path="url(#clip4_20_53)">
<g clip-path="url(#clip5_20_53)">
<g clip-path="url(#clip6_20_53)">
<g clip-path="url(#clip7_20_53)">
<g clip-path="url(#clip8_20_53)">
<g clip-path="url(#clip9_20_53)">
<path d="M34.1117 35.7324C34.1117 36.8031 33.9753 37.8116 33.7026 38.7579C33.4299 39.6988 33.0127 40.5208 32.4509 41.2238C31.8891 41.9213 31.1801 42.4756 30.3238 42.8866C29.4675 43.2921 28.453 43.4949 27.2803 43.4949C26.5713 43.4949 25.9386 43.4327 25.3823 43.3084C24.8205 43.184 24.3106 42.9866 23.8524 42.7162C23.3943 42.4459 22.9688 42.0998 22.5761 41.678C22.1834 41.2562 21.8071 40.7533 21.4471 40.1693L21.4062 43.2191L17.8883 42.7487L18.5264 33.6722L21.488 33.7938C21.608 34.4914 21.7935 35.2214 22.0444 35.9839C22.2953 36.7409 22.6307 37.4358 23.0507 38.0685C23.4706 38.7066 23.9915 39.2284 24.6133 39.634C25.2296 40.0449 25.9714 40.2504 26.8386 40.2504C27.5312 40.2504 28.1148 40.1369 28.5893 39.9097C29.0584 39.688 29.4402 39.3798 29.7347 38.9851C30.0292 38.5849 30.2392 38.1144 30.3647 37.5737C30.4901 37.0329 30.5528 36.4462 30.5528 35.8135C30.5528 35.0997 30.4356 34.4617 30.201 33.8993C29.972 33.3423 29.6502 32.8475 29.2357 32.4149C28.8211 31.9877 28.3385 31.62 27.7876 31.3118C27.2367 30.9981 26.6395 30.7305 25.9959 30.5087C25.265 30.2546 24.5642 29.9896 23.8933 29.7138C23.2225 29.4381 22.5925 29.1325 22.0035 28.7973C21.4199 28.4566 20.8854 28.0781 20.3999 27.6617C19.9145 27.2453 19.4973 26.7667 19.1482 26.226C18.8046 25.6852 18.5346 25.0715 18.3383 24.3847C18.1474 23.698 18.0519 22.9139 18.0519 22.0324C18.0519 20.9347 18.2183 19.9235 18.551 18.9988C18.8837 18.0741 19.3637 17.2792 19.9909 16.6141C20.6127 15.949 21.3708 15.4298 22.2653 15.0567C23.1543 14.689 24.1606 14.5052 25.2841 14.5052C25.9877 14.5052 26.5959 14.57 27.1085 14.6998C27.6212 14.835 28.0767 15.0405 28.4748 15.3163C28.873 15.5921 29.2384 15.9382 29.5711 16.3545C29.9092 16.7709 30.2501 17.263 30.5937 17.8308L30.6346 14.5863L34.1117 14.6674L33.6699 24.7659L30.5528 24.6443C30.4601 24.1576 30.3565 23.652 30.2419 23.1275C30.1329 22.6083 29.9829 22.1054 29.792 21.6188C29.6065 21.1267 29.3884 20.6589 29.1375 20.2155C28.8811 19.7775 28.5784 19.3936 28.2294 19.0637C27.8748 18.7338 27.4658 18.4716 27.0022 18.2769C26.5331 18.0876 25.9986 17.993 25.3987 17.993C24.7878 17.993 24.2587 18.1066 23.8115 18.3337C23.3643 18.5662 22.9961 18.8771 22.707 19.2665C22.4125 19.6558 22.1944 20.1047 22.0525 20.613C21.9162 21.1213 21.848 21.6458 21.848 22.1866C21.848 22.9544 21.9735 23.6087 22.2244 24.1495C22.4752 24.6902 22.8189 25.1553 23.2552 25.5446C23.6861 25.934 24.1878 26.2665 24.7605 26.5423C25.3332 26.8235 25.9468 27.075 26.6013 27.2967C27.5994 27.6536 28.5512 28.0754 29.4566 28.562C30.3619 29.0541 31.161 29.6354 31.8536 30.306C32.5463 30.9819 33.0945 31.766 33.4981 32.6582C33.9071 33.5451 34.1117 34.5698 34.1117 35.7324Z" fill="#374151"/>
</g>
</g>
</g>
</g>
</g>
</g>
</g>
</g>
</g>
</g>
<defs>
<clipPath id="clip0_20_53">
<rect width="52" height="58" fill="white"/>
</clipPath>
<clipPath id="clip1_20_53">
<rect width="52" height="58" fill="white"/>
</clipPath>
<clipPath id="clip2_20_53">
<rect width="52" height="58" fill="white"/>
</clipPath>
<clipPath id="clip3_20_53">
<rect width="16.2234" height="29" fill="white" transform="translate(17.8883 14.5)"/>
</clipPath>
<clipPath id="clip4_20_53">
<rect width="16.2234" height="29" fill="white" transform="translate(17.8883 14.5)"/>
</clipPath>
<clipPath id="clip5_20_53">
<rect width="16.2234" height="29" fill="white" transform="translate(17.8883 14.5)"/>
</clipPath>
<clipPath id="clip6_20_53">
<rect width="16.2234" height="29" fill="white" transform="translate(17.8883 14.5)"/>
</clipPath>
<clipPath id="clip7_20_53">
<rect width="16.2234" height="29" fill="white" transform="translate(17.8883 14.5)"/>
</clipPath>
<clipPath id="clip8_20_53">
<rect width="16.2234" height="29" fill="white" transform="translate(17.8883 14.5)"/>
</clipPath>
<clipPath id="clip9_20_53">
<rect width="16.2234" height="29" fill="white" transform="translate(17.8883 14.5)"/>
</clipPath>
</defs>
</svg>
