<?xml version="1.0" encoding="utf-8"?>
<!-- Generator: Adobe Illustrator 24.3.0, SVG Export Plug-In . SVG Version: 6.00 Build 0)  -->
<svg version="1.0"
	 id="Layer_1" inkscape:version="0.92.4 (5da689c313, 2019-01-14)" sodipodi:docname="Summit_Health_2021.svg" xmlns:cc="http://creativecommons.org/ns#" xmlns:dc="http://purl.org/dc/elements/1.1/" xmlns:inkscape="http://www.inkscape.org/namespaces/inkscape" xmlns:ns="&#38;ns_sfw;" xmlns:rdf="http://www.w3.org/1999/02/22-rdf-syntax-ns#" xmlns:sodipodi="http://sodipodi.sourceforge.net/DTD/sodipodi-0.dtd" xmlns:svg="http://www.w3.org/2000/svg"
	 xmlns="http://www.w3.org/2000/svg" xmlns:xlink="http://www.w3.org/1999/xlink" x="0px" y="0px" viewBox="0 0 870 613.32"
	 style="enable-background:new 0 0 870 613.32;" xml:space="preserve">
<style type="text/css">
	.st0{fill:#F15B5C;stroke:#F15B5C;stroke-width:1.6874;stroke-miterlimit:26.4607;}
</style>
<g>
	
		<sodipodi:namedview  bordercolor="#666666" borderopacity="1" fit-margin-bottom="0" fit-margin-left="0" fit-margin-right="0" fit-margin-top="0" gridtolerance="10" guidetolerance="10" id="namedview882" inkscape:current-layer="Layer_1" inkscape:cx="516.46899" inkscape:cy="-45.296288" inkscape:document-rotation="0" inkscape:pageopacity="0" inkscape:pageshadow="2" inkscape:window-height="1017" inkscape:window-maximized="1" inkscape:window-width="1920" inkscape:window-x="1912" inkscape:window-y="-8" inkscape:zoom="0.98994949" objecttolerance="10" pagecolor="#ffffff" showgrid="false">
		</sodipodi:namedview>
	<g id="g879" transform="matrix(2.6460707,0,0,2.6460707,-1.0085498,-1.2731569)">
		<g id="g877">
			<path id="path873" inkscape:connector-curvature="0" class="st0" d="M172.62,152.98h-15.92c0-3.09-8.32-10.93-13.55-16.16
				c-13.55-13.55-32.32-31.61-32.32-57.04c0-29.71,24.24-53.95,53.95-53.95s53.95,24.24,53.95,53.95H202.8
				c0-20.92-17.11-38.03-38.03-38.03s-38.03,17.11-38.03,38.03c0,18.78,14.74,33.04,27.57,45.63
				C164.54,135.39,172.62,143.23,172.62,152.98L172.62,152.98z"/>
			<path id="path875" inkscape:connector-curvature="0" class="st0" d="M164.78,206.93c-29.71,0-53.95-24.24-53.95-53.95h15.92
				c0,20.92,17.11,38.03,38.03,38.03s38.03-17.11,38.03-38.03c0-18.78-14.74-33.04-27.57-45.63c-10.22-9.98-18.54-17.83-18.54-27.57
				h15.92c0,3.09,8.32,10.93,13.55,16.16c13.55,13.31,32.32,31.61,32.32,56.81C218.73,182.69,194.49,206.93,164.78,206.93z"/>
		</g>
	</g>
</g>
</svg>
